<svg width="20" height="23" viewBox="0 0 20 23" fill="none" xmlns="http://www.w3.org/2000/svg">
<path d="M14.6284 0C14.7363 1.44687 14.2269 2.61201 13.4752 3.46655C12.3699 4.72357 10.7407 5.30939 9.77974 5.13539C9.59896 4.13124 10.0474 2.84943 10.9583 1.81641C11.8175 0.843567 13.0865 0.0914711 14.6284 0ZM9.98729 6.42574C11.0834 6.42574 12.2703 5.39639 14.2251 5.39639C15.1058 5.39639 17.631 5.64315 19.0228 7.62665C18.47 7.99782 16.4265 9.18898 16.4265 11.901C16.4265 15.096 19.2199 16.2018 19.6429 16.4042C19.4902 16.9323 18.7539 18.763 17.5121 20.1968C17.1277 20.6403 15.9733 22.3437 14.2493 22.3437C12.6837 22.3437 12.0878 21.4461 10.2813 21.4461C8.22336 21.4461 8.12507 22.36 6.12331 22.36C5.70295 22.36 5.08645 22.184 4.59764 21.7856C2.86222 20.37 0 16.7107 0 12.1465C0 7.63682 3.22818 5.472 6.05925 5.472C7.83898 5.4716 8.85434 6.42574 9.98729 6.42574Z" fill="black"/>
</svg>
