<svg width="18" height="17" viewBox="0 0 18 17" fill="none" xmlns="http://www.w3.org/2000/svg">
<path d="M0.66342 5.20789C1.19644 3.93909 2.02956 2.81869 3.09118 1.94296C4.15281 1.06724 5.4112 0.462384 6.7582 0.180376C8.10521 -0.101633 9.50054 -0.0523599 10.8243 0.32396C12.1481 0.70028 13.3606 1.39239 14.3579 2.34082L12.177 4.63388C11.551 4.03856 10.7899 3.60412 9.95896 3.3679C9.12804 3.13168 8.25219 3.10076 7.40667 3.27777C6.56116 3.45479 5.77127 3.83446 5.10489 4.38415C4.4385 4.93384 3.91555 5.63712 3.58098 6.43354L0.66342 5.20789Z" fill="#DB4437"/>
<path d="M0.66342 5.20789C1.19644 3.93909 2.02956 2.81869 3.09118 1.94296C4.15281 1.06724 5.4112 0.462384 6.7582 0.180376C8.10521 -0.101633 9.50054 -0.0523599 10.8243 0.32396C12.1481 0.70028 13.3606 1.39239 14.3579 2.34082L12.177 4.63388C11.551 4.03856 10.7899 3.60412 9.95896 3.3679C9.12804 3.13168 8.25219 3.10076 7.40667 3.27777C6.56116 3.45479 5.77127 3.83446 5.10489 4.38415C4.4385 4.93384 3.91555 5.63712 3.58098 6.43354L0.66342 5.20789Z" fill="#DB4437"/>
<path d="M13.7002 15.2237C12.5498 16.1134 11.1903 16.6931 9.75185 16.9073C8.31338 17.1215 6.84401 16.963 5.48429 16.447C4.12457 15.9311 2.91998 15.0748 1.98574 13.9603C1.05151 12.8457 0.418869 11.51 0.148346 10.0811L3.25767 9.49246C3.42747 10.3894 3.82458 11.2278 4.411 11.9274C4.99742 12.627 5.75354 13.1645 6.60704 13.4884C7.46054 13.8122 8.38286 13.9117 9.28579 13.7773C10.1887 13.6428 11.042 13.279 11.7642 12.7205L13.7002 15.2237Z" fill="#0F9D58"/>
<path d="M16.9306 9.58408C16.6431 11.82 15.4791 13.8501 13.6948 15.2279L11.7608 12.7231C12.8808 11.8583 13.6114 10.584 13.7919 9.18048L16.9306 9.58408Z" fill="#4285F4"/>
<path d="M0.157573 10.1291C-0.174815 8.42695 0.021418 6.66386 0.719934 5.07647L3.61681 6.35121C3.17838 7.34754 3.05521 8.45415 3.26384 9.5225L0.157573 10.1291Z" fill="#F4B400"/>
<path d="M8.94775 6.57983L17.0479 6.73464L16.9925 9.63192L8.89238 9.47712L8.94775 6.57983Z" fill="#4285F4"/>
</svg>
