<svg width="32" height="28" viewBox="0 0 32 28" fill="none" xmlns="http://www.w3.org/2000/svg">
<path d="M21.7 9C21.7 12.1259 18.9472 14.7 15.5 14.7C12.0528 14.7 9.3 12.1259 9.3 9C9.3 5.87413 12.0528 3.3 15.5 3.3C18.9472 3.3 21.7 5.87413 21.7 9Z" fill="white" stroke="black" stroke-width="0.6"/>
<path d="M3.44 15.58C3.5722 15.4037 3.77967 15.3 4 15.3H10.2639C10.3726 15.3 10.4798 15.3253 10.577 15.3739L10.7102 15.1075L10.577 15.3739L12.2207 16.1958C12.3457 16.2582 12.4799 16.3002 12.6182 16.3199L15.8044 16.7751C15.9364 16.794 16.0705 16.7924 16.202 16.7705L18.8376 16.3312C19.019 16.301 19.192 16.2326 19.345 16.1306L20.4145 15.4176C20.5295 15.3409 20.6646 15.3 20.8028 15.3H27.382C27.6471 15.3 27.8895 15.4498 28.0081 15.687L28.6551 16.981C28.6906 17.0519 28.7137 17.1284 28.7236 17.2072L29.5618 23.9132C29.614 24.331 29.2883 24.7 28.8672 24.7H2.13278C1.71173 24.7 1.38596 24.331 1.43819 23.9132L2.26474 17.3007C2.27985 17.1798 2.32625 17.065 2.39934 16.9675L3.44 15.58Z" fill="white"/>
<path d="M3.44 15.58C3.5722 15.4037 3.77967 15.3 4 15.3H10.2639C10.3726 15.3 10.4798 15.3253 10.577 15.3739L10.7102 15.1075L10.577 15.3739L12.2207 16.1958C12.3457 16.2582 12.4799 16.3002 12.6182 16.3199L15.8044 16.7751C15.9364 16.794 16.0705 16.7924 16.202 16.7705L18.8376 16.3312C19.019 16.301 19.192 16.2326 19.345 16.1306L20.4145 15.4176C20.5295 15.3409 20.6646 15.3 20.8028 15.3H27.382C27.6471 15.3 27.8895 15.4498 28.0081 15.687L28.6551 16.981C28.6906 17.0519 28.7137 17.1284 28.7236 17.2072L29.5618 23.9132C29.614 24.331 29.2883 24.7 28.8672 24.7H2.13278C1.71173 24.7 1.38596 24.331 1.43819 23.9132L2.26474 17.3007C2.27985 17.1798 2.32625 17.065 2.39934 16.9675L3.44 15.58Z" stroke="black" stroke-width="0.6"/>
<path d="M3.44 15.58C3.5722 15.4037 3.77967 15.3 4 15.3H10.2639C10.3726 15.3 10.4798 15.3253 10.577 15.3739L10.7102 15.1075L10.577 15.3739L12.2207 16.1958C12.3457 16.2582 12.4799 16.3002 12.6182 16.3199L15.8044 16.7751C15.9364 16.794 16.0705 16.7924 16.202 16.7705L18.8376 16.3312C19.019 16.301 19.192 16.2326 19.345 16.1306L20.4145 15.4176C20.5295 15.3409 20.6646 15.3 20.8028 15.3H27.382C27.6471 15.3 27.8895 15.4498 28.0081 15.687L28.6551 16.981C28.6906 17.0519 28.7137 17.1284 28.7236 17.2072L29.5618 23.9132C29.614 24.331 29.2883 24.7 28.8672 24.7H2.13278C1.71173 24.7 1.38596 24.331 1.43819 23.9132L2.26474 17.3007C2.27985 17.1798 2.32625 17.065 2.39934 16.9675L3.44 15.58Z" stroke="black" stroke-opacity="0.2" stroke-width="0.6"/>
</svg>
