<svg width="40" height="26" viewBox="0 0 40 26" fill="none" xmlns="http://www.w3.org/2000/svg">
<path d="M32.7 13.5C32.7 16.2839 31.1962 18.8271 28.7195 20.6846C26.2427 22.5422 22.8074 23.7 19 23.7C15.1926 23.7 11.7573 22.5422 9.28051 20.6846C6.80383 18.8271 5.3 16.2839 5.3 13.5C5.3 10.7161 6.80383 8.17288 9.28051 6.31538C11.7573 4.4578 15.1926 3.3 19 3.3C22.8074 3.3 26.2427 4.4578 28.7195 6.31538C31.1962 8.17288 32.7 10.7161 32.7 13.5Z" fill="white" stroke="black" stroke-width="0.6"/>
<path d="M26.4997 6.01612C26.5086 5.74012 26.2921 5.50916 26.0161 5.50026L21.5185 5.35517C21.2425 5.34627 21.0115 5.56279 21.0026 5.83879C20.9937 6.11479 21.2102 6.34575 21.4862 6.35465L25.4841 6.48362L25.3552 10.4815C25.3463 10.7575 25.5628 10.9885 25.8388 10.9974C26.1148 11.0063 26.3458 10.7898 26.3547 10.5138L26.4997 6.01612ZM10.342 21.3648L26.342 6.36477L25.658 5.63523L9.65803 20.6352L10.342 21.3648Z" fill="black"/>
</svg>
